<svg width="24" height="24" viewBox="0 0 24 24" fill="none" xmlns="http://www.w3.org/2000/svg">
<path d="M5.33335 8.06669H10C10.2222 8.06669 10.4111 7.98891 10.5667 7.83335C10.7222 7.6778 10.8 7.48891 10.8 7.26669C10.8 7.04446 10.7222 6.85558 10.5667 6.70002C10.4111 6.54446 10.2222 6.46669 10 6.46669H5.33335C5.11113 6.46669 4.92224 6.54446 4.76669 6.70002C4.61113 6.85558 4.53335 7.04446 4.53335 7.26669C4.53335 7.48891 4.61113 7.6778 4.76669 7.83335C4.92224 7.98891 5.11113 8.06669 5.33335 8.06669ZM14.3334 18.8H19C19.2222 18.8 19.4111 18.7222 19.5667 18.5667C19.7222 18.4111 19.8 18.2222 19.8 18C19.8 17.7778 19.7222 17.5889 19.5667 17.4334C19.4111 17.2778 19.2222 17.2 19 17.2H14.3334C14.1111 17.2 13.9222 17.2778 13.7667 17.4334C13.6111 17.5889 13.5334 17.7778 13.5334 18C13.5334 18.2222 13.6111 18.4111 13.7667 18.5667C13.9222 18.7222 14.1111 18.8 14.3334 18.8ZM14.3334 15.4667H19C19.2222 15.4667 19.4111 15.3889 19.5667 15.2334C19.7222 15.0778 19.8 14.8889 19.8 14.6667C19.8 14.4445 19.7222 14.2556 19.5667 14.1C19.4111 13.9445 19.2222 13.8667 19 13.8667H14.3334C14.1111 13.8667 13.9222 13.9445 13.7667 14.1C13.6111 14.2556 13.5334 14.4445 13.5334 14.6667C13.5334 14.8889 13.6111 15.0778 13.7667 15.2334C13.9222 15.3889 14.1111 15.4667 14.3334 15.4667ZM7.66669 19.8C7.88891 19.8 8.0778 19.7222 8.23335 19.5667C8.38891 19.4111 8.46669 19.2222 8.46669 19V17.1334H10.3334C10.5556 17.1334 10.7445 17.0556 10.9 16.9C11.0556 16.7445 11.1334 16.5556 11.1334 16.3334C11.1334 16.1111 11.0556 15.9222 10.9 15.7667C10.7445 15.6111 10.5556 15.5334 10.3334 15.5334H8.46669V13.6667C8.46669 13.4445 8.38891 13.2556 8.23335 13.1C8.0778 12.9445 7.88891 12.8667 7.66669 12.8667C7.44446 12.8667 7.25558 12.9445 7.10002 13.1C6.94446 13.2556 6.86669 13.4445 6.86669 13.6667V15.5334H5.00002C4.7778 15.5334 4.58891 15.6111 4.43335 15.7667C4.2778 15.9222 4.20002 16.1111 4.20002 16.3334C4.20002 16.5556 4.2778 16.7445 4.43335 16.9C4.58891 17.0556 4.7778 17.1334 5.00002 17.1334H6.86669V19C6.86669 19.2222 6.94446 19.4111 7.10002 19.5667C7.25558 19.7222 7.44446 19.8 7.66669 19.8ZM14.2334 9.73335C14.4111 9.88891 14.6 9.96669 14.8 9.96669C15 9.96669 15.1889 9.88891 15.3667 9.73335L16.6667 8.43335L18 9.76669C18.1556 9.90002 18.3334 9.96669 18.5334 9.96669C18.7334 9.96669 18.9222 9.88891 19.1 9.73335C19.2556 9.5778 19.3334 9.39424 19.3334 9.18269C19.3334 8.97202 19.2556 8.7778 19.1 8.60002L17.8 7.26669L19.1334 5.93335C19.2667 5.7778 19.3334 5.60002 19.3334 5.40002C19.3334 5.20002 19.2556 5.01113 19.1 4.83335C18.9222 4.6778 18.7334 4.60002 18.5334 4.60002C18.3334 4.60002 18.1445 4.6778 17.9667 4.83335L16.6667 6.13335L15.3334 4.80002C15.1778 4.66669 15 4.60002 14.8 4.60002C14.6 4.60002 14.4111 4.6778 14.2334 4.83335C14.0778 5.01113 14 5.20002 14 5.40002C14 5.60002 14.0778 5.78891 14.2334 5.96669L15.5334 7.26669L14.2 8.63335C14.0667 8.78891 14 8.97202 14 9.18269C14 9.39424 14.0778 9.5778 14.2334 9.73335ZM3.06669 23.3334C2.40002 23.3334 1.83335 23.1 1.36669 22.6334C0.90002 22.1667 0.666687 21.6 0.666687 20.9334V3.06669C0.666687 2.40002 0.90002 1.83335 1.36669 1.36669C1.83335 0.90002 2.40002 0.666687 3.06669 0.666687H20.9334C21.6 0.666687 22.1667 0.90002 22.6334 1.36669C23.1 1.83335 23.3334 2.40002 23.3334 3.06669V20.9334C23.3334 21.6 23.1 22.1667 22.6334 22.6334C22.1667 23.1 21.6 23.3334 20.9334 23.3334H3.06669Z" fill="#62A39E"/>
</svg>
