<svg width="24" height="22" viewBox="0 0 24 22" fill="none" xmlns="http://www.w3.org/2000/svg">
<path d="M19.6666 14.6667V12.6667H22.6666C22.9555 12.6667 23.1946 12.7609 23.3839 12.9493C23.5724 13.1387 23.6666 13.3778 23.6666 13.6667C23.6666 13.9555 23.5724 14.1942 23.3839 14.3827C23.1946 14.572 22.9555 14.6667 22.6666 14.6667H19.6666ZM19.6666 20V18H22.6666C22.9555 18 23.1946 18.0942 23.3839 18.2827C23.5724 18.472 23.6666 18.7111 23.6666 19C23.6666 19.2889 23.5724 19.528 23.3839 19.7173C23.1946 19.9058 22.9555 20 22.6666 20H19.6666ZM14.6666 21.3333C14.0221 21.3333 13.4719 21.0724 13.0159 20.5507C12.5608 20.028 12.3333 19.4 12.3333 18.6667H9.66659V14H12.3333C12.3333 13.2667 12.5608 12.6387 13.0159 12.116C13.4719 11.5942 14.0221 11.3333 14.6666 11.3333H17.1333C17.4666 11.3333 17.7501 11.4498 17.9839 11.6827C18.2168 11.9164 18.3333 12.2 18.3333 12.5333V20.1333C18.3333 20.4667 18.2168 20.7502 17.9839 20.984C17.7501 21.2169 17.4666 21.3333 17.1333 21.3333H14.6666ZM5.33325 17.3333C3.95547 17.3333 2.7777 16.8444 1.79992 15.8667C0.822141 14.8889 0.333252 13.7111 0.333252 12.3333C0.333252 10.9555 0.822141 9.77777 1.79992 8.79999C2.7777 7.82221 3.95547 7.33332 5.33325 7.33332H7.33325C7.9777 7.33332 8.52792 7.10577 8.98392 6.65066C9.43903 6.19466 9.66659 5.64443 9.66659 4.99999C9.66659 4.35555 9.43903 3.80532 8.98392 3.34932C8.52792 2.89421 7.9777 2.66666 7.33325 2.66666H2.66659C2.3777 2.66666 2.13903 2.57199 1.95059 2.38266C1.76125 2.19421 1.66659 1.95555 1.66659 1.66666C1.66659 1.37777 1.76125 1.13866 1.95059 0.949323C2.13903 0.760879 2.3777 0.666656 2.66659 0.666656H7.33325C8.53325 0.666656 9.55547 1.08888 10.3999 1.93332C11.2444 2.77777 11.6666 3.79999 11.6666 4.99999C11.6666 6.19999 11.2444 7.22221 10.3999 8.06666C9.55547 8.9111 8.53325 9.33332 7.33325 9.33332H5.33325C4.51103 9.33332 3.80525 9.62754 3.21592 10.216C2.62747 10.8053 2.33325 11.5111 2.33325 12.3333C2.33325 13.1555 2.62747 13.8609 3.21592 14.4493C3.80525 15.0387 4.51103 15.3333 5.33325 15.3333H8.33325V17.3333H5.33325Z" fill="#62A39E"/>
</svg>
