<svg width="378" height="434" viewBox="0 0 378 434" fill="none" xmlns="http://www.w3.org/2000/svg">
<g clip-path="url(#clip0_360_3044)">
<circle opacity="0.7" cx="272.085" cy="107.335" r="39.6712" transform="rotate(157.281 272.085 107.335)" fill="#D3FFFF"/>
<circle opacity="0.7" cx="217.67" cy="73.67" r="37.1918" transform="rotate(157.281 217.67 73.67)" fill="#6DFFDC"/>
<circle opacity="0.7" cx="259.336" cy="55.3361" r="29.295" transform="rotate(157.281 259.336 55.3361)" fill="#FFDE89"/>
<path fill-rule="evenodd" clip-rule="evenodd" d="M252.764 20.3195C252.831 20.5874 253.103 20.7503 253.37 20.6833C253.638 20.6163 253.801 20.3449 253.734 20.077L248.81 0.37885C248.743 0.110953 248.471 -0.0519274 248.203 0.015047C247.935 0.0820214 247.773 0.353489 247.84 0.621386L252.764 20.3195ZM277.407 25.6108C277.177 25.4576 277.115 25.1472 277.268 24.9174L288.531 8.02316C288.684 7.79339 288.995 7.7313 289.224 7.88448C289.454 8.03766 289.516 8.34809 289.363 8.57786L278.1 25.4721C277.947 25.7019 277.637 25.7639 277.407 25.6108ZM287.475 55.1816C287.475 70.8077 274.808 83.4751 259.182 83.4751C243.556 83.4751 230.888 70.8077 230.888 55.1816C230.888 39.5555 243.556 26.8881 259.182 26.8881C274.808 26.8881 287.475 39.5555 287.475 55.1816ZM288.475 55.1816C288.475 71.3599 275.36 84.4751 259.182 84.4751C243.003 84.4751 229.888 71.3599 229.888 55.1816C229.888 39.0033 243.003 25.8881 259.182 25.8881C275.36 25.8881 288.475 39.0033 288.475 55.1816ZM257.937 75.6936C258.02 75.43 257.873 75.1496 257.609 75.0673L257.609 75.0673L257.608 75.067L257.604 75.0656L257.585 75.0598L257.511 75.0361C257.446 75.015 257.349 74.9832 257.223 74.9412C256.972 74.857 256.608 74.7318 256.159 74.5683C255.26 74.241 254.021 73.7611 252.663 73.1506C249.927 71.9213 246.777 70.1932 244.903 68.1582C243.257 66.3709 241.855 63.5432 240.857 61.1174C240.361 59.9126 239.971 58.822 239.705 58.0328C239.572 57.6384 239.47 57.3198 239.401 57.1003C239.367 56.9906 239.341 56.9057 239.324 56.8485L239.305 56.784L239.3 56.7681L239.299 56.7643L239.299 56.7635L239.299 56.7634L239.299 56.7634C239.221 56.4983 238.944 56.346 238.679 56.4233C238.414 56.5005 238.261 56.7781 238.339 57.0432L238.819 56.9033C238.339 57.0432 238.339 57.0433 238.339 57.0434L238.339 57.0438L238.339 57.0452L238.341 57.05L238.346 57.068L238.367 57.1369C238.385 57.197 238.412 57.285 238.447 57.3981C238.517 57.624 238.622 57.95 238.757 58.3524C239.029 59.1568 239.426 60.2684 239.932 61.4979C240.937 63.9406 242.393 66.9097 244.167 68.8356C246.188 71.0296 249.5 72.8254 252.253 74.0627C253.639 74.6855 254.901 75.1746 255.817 75.508C256.275 75.6747 256.647 75.8028 256.905 75.8893C257.035 75.9326 257.135 75.9655 257.204 75.9877L257.283 76.013L257.303 76.0195L257.309 76.0212L257.31 76.0217L257.311 76.0218C257.311 76.0219 257.311 76.0219 257.46 75.5446L257.311 76.0219C257.575 76.1042 257.855 75.9572 257.937 75.6936ZM241.944 82.0385C242.184 82.1755 242.267 82.4809 242.13 82.7207L231.56 101.218C231.423 101.458 231.118 101.541 230.878 101.404C230.639 101.267 230.555 100.962 230.692 100.722L241.262 82.2245C241.399 81.9848 241.705 81.9015 241.944 82.0385ZM268.231 90.1547C268.192 89.8813 267.939 89.6914 267.666 89.7305C267.392 89.7695 267.202 90.0228 267.241 90.2961L270.113 110.396C270.152 110.67 270.405 110.86 270.679 110.821C270.952 110.782 271.142 110.528 271.103 110.255L268.231 90.1547ZM288.752 73.4069C288.906 73.1771 289.216 73.115 289.446 73.2682L306.34 84.531C306.57 84.6842 306.632 84.9946 306.479 85.2244C306.326 85.4542 306.015 85.5163 305.785 85.3631L288.891 74.1003C288.661 73.9471 288.599 73.6366 288.752 73.4069ZM294.155 46.1318C293.881 46.1709 293.691 46.4241 293.73 46.6975C293.77 46.9709 294.023 47.1608 294.296 47.1218L314.396 44.2503C314.67 44.2112 314.86 43.958 314.821 43.6846C314.782 43.4112 314.528 43.2213 314.255 43.2603L294.155 46.1318ZM229.598 36.9472C229.437 37.1719 229.125 37.2239 228.9 37.0634L212.378 25.2617C212.153 25.1012 212.101 24.789 212.261 24.5643C212.422 24.3396 212.734 24.2875 212.959 24.448L229.481 36.2497C229.706 36.4102 229.758 36.7225 229.598 36.9472ZM224.319 61.5991C224.587 61.5321 224.75 61.2607 224.683 60.9928C224.616 60.7249 224.345 60.562 224.077 60.629L204.379 65.5535C204.111 65.6205 203.948 65.8919 204.015 66.1598C204.082 66.4277 204.353 66.5906 204.621 66.5236L224.319 61.5991Z" fill="black"/>
<circle cx="90" cy="143" r="90" fill="#F1F7F4"/>
<ellipse cx="90" cy="181.5" rx="58" ry="2.5" fill="#D3E2DB"/>
<path d="M115.695 142.815L126.424 142.518L129.601 144.446L118.175 144.696M123.687 146.24C122.97 145.614 122.324 145.06 121.742 144.572C117.348 140.888 116.567 140.888 116.567 140.888H120.849L128.585 146.24M123.738 140.888L132.558 146.24H120.211L113.156 140.888H123.738Z" stroke="#474747" stroke-miterlimit="10" stroke-linejoin="round"/>
<path d="M82.2437 142.815L89.6146 142.677L89.3542 144.5L84.7236 144.696M89.3542 145.542C88.6372 144.915 88.8721 145.06 88.2901 144.572C87.2653 143.713 86.438 143.054 85.7704 142.549C83.5745 140.888 83.115 140.888 83.115 140.888H87.7547L88.5837 141.489L89.8749 142.417M89.875 140.854L89.21 146.24H86.7591L79.7037 140.888L89.875 140.854Z" stroke="#474747" stroke-miterlimit="10" stroke-linejoin="round"/>
<path d="M97.9661 142.815L105.5 142.677M105.5 142.677L105.24 144.5L100.446 144.696M105.5 142.677L103.477 140.888H98.8374C98.8374 140.888 99.4186 140.888 102.399 143.253C102.874 143.63 103.409 144.066 104.012 144.572C104.595 145.06 104.262 144.915 104.979 145.542M105.5 142.677L105.126 146.24M105.5 140.854L104.979 146.063L102.481 146.24L95.4261 140.888L105.5 140.854Z" stroke="#474747" stroke-miterlimit="10" stroke-linejoin="round"/>
<path d="M137.91 178.02V147.855M137.91 147.855H120.228L109.3 139.778L106.856 137.971L106.214 137.497C106.214 137.497 106.232 137.371 105.782 140.43C105.331 143.489 104.409 149.732 104.409 149.732L92.1543 139.01L91.6451 138.564L91.3789 138.332L90.4445 137.514L88.4013 149.629L77.7905 139.191L76.7677 138.185L76.1019 137.53L75.9022 139.263L74.7723 149.062L63.3124 137.208M137.91 147.855L135.253 146.081L123.85 138.467L122.369 137.479L63.3124 137.208M63.3124 137.208C63.3124 153.277 63.3124 162.286 63.3124 178.354" stroke="#474747" stroke-miterlimit="10" stroke-linejoin="round"/>
<path d="M63.0491 177.916L120.083 177.833V147.625" stroke="#474747" stroke-miterlimit="10" stroke-linejoin="round"/>
<path d="M119.042 176.792V148.667L107.193 139.292L105.24 152.052L91.1774 139.813L89.0941 151.792L76.8545 139.813L76.3337 146.063L75.8128 151.531L64.3545 139.813V176.792" fill="#D3E2DB"/>
<path d="M43.0004 178L43.0003 122.104H76.8545L76.8382 136.795" stroke="#474747" stroke-miterlimit="10" stroke-linejoin="round"/>
<path d="M58.5997 178.287H62.2213V135.425H75.6729V131.189V122.965H65.8429H58.5997H54.9781H52.3913H44.1134V178.287" fill="#D3E2DB"/>
<path d="M57.042 109C57.042 108.172 57.7136 107.5 58.542 107.5H64.2243H71.3857H76.417C77.2454 107.5 77.917 108.172 77.917 109V112.208V115.417C77.917 116.245 77.2454 116.917 76.417 116.917H71.3857H68.1956H64.2243H58.542C57.7136 116.917 57.042 116.245 57.042 115.417V112.208V109Z" stroke="#474747"/>
<line x1="68.542" y1="122.104" x2="68.542" y2="116.896" stroke="#474747"/>
<circle cx="238" cy="294" r="140" fill="#E9F3EE"/>
<ellipse cx="238" cy="337.5" rx="110" ry="2.5" fill="#BCD2CA"/>
<path fill-rule="evenodd" clip-rule="evenodd" d="M187.688 256.763C187.429 256.847 187.295 256.919 187.241 256.961C186.987 257.16 186.649 257.635 186.253 258.438C185.867 259.22 185.455 260.247 185.027 261.475C184.172 263.93 183.266 267.144 182.375 270.711C180.614 277.754 178.918 286.131 177.79 292.648C177.893 292.762 178.038 292.926 178.212 293.131C178.567 293.549 179.043 294.14 179.532 294.831C180.493 296.191 181.56 298.022 181.747 299.717C181.96 301.643 181.094 303.891 180.238 305.59C179.803 306.454 179.356 307.204 179.018 307.737C178.854 307.996 178.715 308.205 178.615 308.352C180.08 311.419 182.062 315.19 183.912 318.281C184.864 319.872 185.775 321.272 186.558 322.301C186.95 322.817 187.302 323.229 187.604 323.522C187.762 323.676 187.893 323.784 187.998 323.857C188.019 323.785 188.042 323.695 188.066 323.584C188.154 323.181 188.233 322.63 188.332 321.944L188.332 321.944L188.332 321.941L188.333 321.937L188.334 321.926C188.362 321.733 188.392 321.529 188.423 321.316C188.708 319.381 189.153 316.735 190.199 314.11C191.246 311.482 192.905 308.851 195.632 306.971C198.364 305.087 202.118 303.991 207.288 304.347C212.447 304.703 215.888 306.159 218.209 308.196C220.527 310.231 221.673 312.799 222.329 315.276C222.657 316.514 222.864 317.735 223.033 318.86C223.08 319.173 223.124 319.478 223.166 319.772C223.277 320.545 223.379 321.25 223.504 321.882C223.677 322.76 223.882 323.413 224.168 323.841C224.429 324.232 224.75 324.429 225.24 324.432C234.826 324.481 242.685 324.641 249.97 324.788C264.473 325.082 276.699 325.33 295.741 324.571C296.56 324.538 297.161 324.226 297.65 323.691C298.156 323.139 298.553 322.335 298.904 321.311C299.253 320.291 299.539 319.101 299.851 317.799L299.869 317.722L299.869 317.721L299.869 317.72L299.87 317.719C300.173 316.448 300.5 315.082 300.926 313.717C301.795 310.93 303.095 308.091 305.538 305.96C307.992 303.821 311.538 302.448 316.798 302.478C322.048 302.507 325.65 303.789 328.191 305.735C330.729 307.678 332.157 310.243 333.135 312.739C333.623 313.986 334.003 315.225 334.349 316.362L334.368 316.423L334.368 316.423L334.368 316.424L334.368 316.424C334.71 317.546 335.017 318.554 335.37 319.405C335.73 320.276 336.117 320.927 336.584 321.347C337.031 321.749 337.577 321.962 338.335 321.909C340.298 321.772 342.415 321.858 344.467 321.993C345.222 322.042 345.966 322.099 346.69 322.153C347.949 322.249 349.15 322.34 350.26 322.385C352.016 322.457 353.445 322.408 354.408 322.112C354.884 321.966 355.198 321.773 355.389 321.549C355.569 321.338 355.674 321.055 355.651 320.639C355.619 320.047 355.61 319.184 355.6 318.12V318.119C355.56 314.061 355.492 307.074 353.933 300.972L353.887 300.957C353.688 300.892 353.401 300.796 353.044 300.673C352.332 300.426 351.342 300.07 350.235 299.631C348.032 298.756 345.322 297.538 343.407 296.186C341.523 294.855 339.494 292.751 337.951 291.002C337.175 290.123 336.516 289.327 336.05 288.749C335.817 288.461 335.632 288.227 335.505 288.064L335.443 287.984C334.08 287.852 332.66 287.731 331.196 287.606L331.195 287.606C326.923 287.243 322.285 286.849 317.662 286.044C311.363 284.947 305.034 283.08 299.584 279.453C294.426 276.019 289.89 270.947 286.183 266.472C285.362 265.481 284.586 264.525 283.853 263.621C282.917 262.468 282.051 261.4 281.248 260.454C279.807 258.755 278.646 257.54 277.76 256.993C277.706 256.959 277.569 256.901 277.307 256.832C277.057 256.767 276.73 256.7 276.327 256.634C275.522 256.501 274.442 256.374 273.12 256.254C270.479 256.013 266.904 255.802 262.702 255.625C254.3 255.271 243.413 255.054 232.52 255.009C221.626 254.964 210.733 255.09 202.319 255.421C198.11 255.587 194.529 255.804 191.88 256.075C190.554 256.211 189.472 256.359 188.666 256.52C188.262 256.6 187.936 256.681 187.688 256.763ZM336.832 288.126C337.29 288.694 337.939 289.477 338.7 290.34C340.235 292.079 342.2 294.109 343.984 295.369C345.797 296.648 348.413 297.832 350.604 298.701C351.694 299.134 352.669 299.485 353.371 299.728C353.456 299.757 353.538 299.785 353.614 299.811C352.587 296.32 351.037 293.3 348.716 291.457C347.419 290.426 345.612 289.701 343.378 289.164C341.456 288.701 339.249 288.386 336.832 288.126ZM178.116 307.292L178.173 307.202C178.499 306.688 178.928 305.968 179.345 305.141C180.192 303.458 180.931 301.44 180.753 299.827C180.596 298.404 179.665 296.752 178.715 295.408C178.302 294.823 177.896 294.312 177.572 293.924C177.188 296.213 176.884 298.221 176.686 299.792C176.572 300.694 176.493 301.447 176.453 302.024C176.412 302.623 176.418 302.974 176.446 303.113C176.516 303.461 176.737 304.101 177.098 304.979C177.371 305.645 177.717 306.428 178.116 307.292ZM277.561 255.865C277.841 255.939 278.099 256.027 278.286 256.142C279.328 256.786 280.586 258.128 282.01 259.807C282.815 260.756 283.697 261.842 284.642 263.006L284.643 263.007L284.643 263.008C285.377 263.913 286.15 264.864 286.953 265.834C290.655 270.303 295.111 275.274 300.139 278.62C305.426 282.14 311.603 283.974 317.834 285.059C322.409 285.856 326.981 286.244 331.241 286.606L331.242 286.606L331.242 286.606L331.242 286.606L331.242 286.606C332.793 286.738 334.302 286.867 335.756 287.01C338.645 287.294 341.313 287.639 343.612 288.192C345.907 288.743 347.876 289.513 349.338 290.674C352.108 292.873 353.792 296.511 354.831 300.453C356.495 306.762 356.564 314.114 356.602 318.198V318.199V318.199V318.199V318.199C356.612 319.221 356.62 320.038 356.65 320.583C356.685 321.218 356.52 321.763 356.151 322.197C355.792 322.619 355.28 322.89 354.702 323.068C353.558 323.419 351.973 323.456 350.219 323.384C349.095 323.338 347.861 323.245 346.588 323.149L346.588 323.149L346.587 323.149C345.867 323.094 345.133 323.039 344.401 322.991C342.36 322.856 340.297 322.775 338.404 322.906C337.385 322.977 336.571 322.679 335.916 322.092C335.282 321.522 334.826 320.707 334.446 319.788C334.074 318.89 333.754 317.841 333.42 316.742L333.393 316.654C333.045 315.514 332.676 314.31 332.204 313.104C331.26 310.696 329.919 308.318 327.583 306.529C325.252 304.744 321.878 303.506 316.793 303.477C311.718 303.449 308.426 304.77 306.196 306.714C303.955 308.668 302.727 311.302 301.88 314.015C301.464 315.348 301.145 316.686 300.839 317.965L300.839 317.966L300.823 318.031C300.515 319.322 300.217 320.561 299.85 321.635C299.483 322.706 299.032 323.663 298.388 324.366C297.728 325.088 296.879 325.526 295.781 325.57C276.71 326.331 264.44 326.082 249.918 325.788C242.637 325.64 234.79 325.481 225.235 325.432C224.379 325.428 223.763 325.036 223.336 324.396C222.934 323.793 222.7 322.973 222.523 322.076C222.392 321.417 222.285 320.672 222.173 319.89L222.172 319.889L222.172 319.889L222.172 319.889V319.889L222.172 319.888C222.131 319.599 222.088 319.305 222.044 319.008C221.877 317.895 221.676 316.716 221.363 315.532C220.736 313.166 219.666 310.806 217.549 308.948C215.434 307.091 212.22 305.69 207.219 305.345C202.23 305.001 198.711 306.062 196.2 307.794C193.683 309.529 192.127 311.973 191.128 314.48C190.127 316.991 189.695 319.54 189.412 321.461C189.382 321.666 189.354 321.865 189.326 322.057L189.326 322.059C189.226 322.753 189.139 323.356 189.043 323.798C188.983 324.074 188.908 324.343 188.797 324.544C188.741 324.645 188.652 324.773 188.512 324.863C188.351 324.967 188.158 324.999 187.969 324.947C187.606 324.848 187.243 324.566 186.907 324.239C186.555 323.897 186.169 323.442 185.762 322.907C184.946 321.835 184.014 320.399 183.054 318.794C181.132 315.583 179.075 311.656 177.587 308.519C177.022 307.328 176.538 306.247 176.173 305.359C175.955 304.827 175.774 304.352 175.645 303.959C175.462 304.061 175.237 304.184 174.974 304.326C174.187 304.751 173.055 305.344 171.673 306.018C168.909 307.365 165.136 309.043 161.106 310.353C157.084 311.661 152.771 312.615 148.94 312.49C145.103 312.365 141.674 311.151 139.559 308.042C137.617 305.186 136.179 302.339 135.61 299.398C135.038 296.445 135.349 293.423 136.858 290.237C137.457 288.973 138.274 288.1 139.269 287.55C140.257 287.003 141.384 286.795 142.576 286.794C144.936 286.793 147.68 287.613 150.36 288.416L150.421 288.435L150.421 288.435C153.121 289.245 155.765 290.038 158.076 290.109C160.368 290.179 162.249 289.538 163.517 287.522C167.87 280.6 167.177 272.047 160.957 266.868C157.757 264.204 153.007 264.781 148.884 266.154C146.847 266.832 145.016 267.687 143.694 268.374C143.033 268.717 142.5 269.017 142.134 269.231C141.998 269.31 141.885 269.378 141.796 269.431L141.795 269.461C141.787 269.656 141.774 269.935 141.749 270.277C141.699 270.961 141.606 271.902 141.431 272.926C141.256 273.949 140.997 275.066 140.612 276.1C140.229 277.128 139.709 278.106 138.995 278.821C138.243 279.573 137.215 279.922 136.159 280.05C135.101 280.178 133.966 280.091 132.937 279.926C131.904 279.761 130.958 279.514 130.272 279.308C129.928 279.206 129.648 279.113 129.453 279.046C129.355 279.012 129.279 278.985 129.226 278.965L129.165 278.943L129.149 278.937L129.145 278.935L129.143 278.935L129.143 278.935C129.143 278.935 129.142 278.935 129.321 278.467L129.142 278.935L128.821 278.812V278.467V272.31H120V271.31H128.821V265.652H120V264.652H128.821V259.826V259.482L129.142 259.359L129.321 259.826C129.142 259.359 129.143 259.359 129.143 259.359L129.143 259.359L129.145 259.358L129.149 259.356L129.165 259.35L129.226 259.328C129.279 259.309 129.355 259.281 129.453 259.248C129.648 259.181 129.928 259.088 130.272 258.985C130.958 258.78 131.904 258.533 132.937 258.367C133.966 258.202 135.101 258.116 136.159 258.244C137.215 258.372 138.243 258.721 138.995 259.473C139.709 260.187 140.229 261.166 140.612 262.194C140.997 263.227 141.256 264.344 141.431 265.367C141.606 266.392 141.699 267.332 141.749 268.016C141.756 268.112 141.762 268.202 141.767 268.287C142.136 268.074 142.633 267.797 143.233 267.486C144.586 266.784 146.466 265.905 148.568 265.205C152.721 263.822 157.957 263.068 161.597 266.099C168.264 271.651 168.938 280.781 164.363 288.054C162.849 290.462 160.57 291.185 158.046 291.108C155.602 291.034 152.852 290.208 150.214 289.417L150.073 289.374C147.35 288.557 144.759 287.793 142.576 287.794C141.496 287.795 140.55 287.984 139.753 288.425C138.962 288.863 138.281 289.568 137.762 290.665C136.343 293.66 136.061 296.466 136.592 299.208C137.125 301.963 138.482 304.681 140.386 307.48C142.255 310.226 145.315 311.371 148.972 311.491C152.635 311.611 156.82 310.695 160.797 309.402C164.767 308.111 168.496 306.454 171.234 305.119C172.603 304.452 173.722 303.865 174.499 303.446C174.887 303.237 175.189 303.069 175.394 302.954L175.427 302.936C175.417 302.667 175.43 302.332 175.456 301.955C175.497 301.352 175.578 300.578 175.693 299.667C175.924 297.843 176.293 295.448 176.763 292.72C177.894 286.151 179.615 277.628 181.404 270.468C182.299 266.89 183.214 263.642 184.083 261.146C184.517 259.899 184.944 258.829 185.356 257.995C185.758 257.182 186.178 256.523 186.625 256.174C186.819 256.022 187.088 255.907 187.377 255.812C187.677 255.714 188.045 255.623 188.471 255.539C189.322 255.37 190.439 255.218 191.778 255.08C194.458 254.806 198.063 254.588 202.279 254.422C210.714 254.09 221.623 253.964 232.524 254.009C243.425 254.054 254.326 254.271 262.744 254.626C266.952 254.803 270.546 255.015 273.211 255.258C274.543 255.379 275.65 255.509 276.49 255.647C276.909 255.716 277.27 255.789 277.561 255.865ZM140.804 269.147L140.804 269.137L140.803 269.083C140.802 269.035 140.8 268.964 140.796 268.871C140.789 268.687 140.775 268.419 140.751 268.088C140.704 267.427 140.614 266.52 140.445 265.536C140.276 264.55 140.031 263.498 139.675 262.543C139.317 261.582 138.86 260.752 138.288 260.18C137.753 259.645 136.972 259.35 136.039 259.237C135.108 259.124 134.074 259.198 133.095 259.355C132.119 259.511 131.217 259.746 130.558 259.943C130.254 260.034 130.002 260.117 129.821 260.179V265.152V271.81V278.115C130.002 278.177 130.254 278.259 130.558 278.35C131.217 278.547 132.119 278.783 133.095 278.939C134.074 279.096 135.108 279.17 136.039 279.057C136.972 278.944 137.753 278.649 138.288 278.114C138.86 277.541 139.317 276.711 139.675 275.751C140.031 274.795 140.276 273.743 140.445 272.757C140.614 271.773 140.704 270.866 140.751 270.205C140.775 269.875 140.789 269.607 140.796 269.422C140.8 269.33 140.802 269.258 140.803 269.21L140.804 269.157L140.804 269.147ZM329.38 318.413C329.38 325.215 323.867 330.728 317.065 330.728C310.264 330.728 304.75 325.215 304.75 318.413C304.75 311.612 310.264 306.098 317.065 306.098C323.867 306.098 329.38 311.612 329.38 318.413ZM330.38 318.413C330.38 325.767 324.419 331.728 317.065 331.728C309.711 331.728 303.75 325.767 303.75 318.413C303.75 311.059 309.711 305.098 317.065 305.098C324.419 305.098 330.38 311.059 330.38 318.413ZM321.391 318.413C321.391 320.802 319.454 322.739 317.065 322.739C314.676 322.739 312.739 320.802 312.739 318.413C312.739 316.024 314.676 314.087 317.065 314.087C319.454 314.087 321.391 316.024 321.391 318.413ZM322.391 318.413C322.391 321.355 320.007 323.739 317.065 323.739C314.124 323.739 311.739 321.355 311.739 318.413C311.739 315.472 314.124 313.087 317.065 313.087C320.007 313.087 322.391 315.472 322.391 318.413ZM205.217 333.391C212.019 333.391 217.533 327.878 217.533 321.076C217.533 314.275 212.019 308.761 205.217 308.761C198.416 308.761 192.902 314.275 192.902 321.076C192.902 327.878 198.416 333.391 205.217 333.391ZM205.217 334.391C212.571 334.391 218.533 328.43 218.533 321.076C218.533 313.722 212.571 307.761 205.217 307.761C197.864 307.761 191.902 313.722 191.902 321.076C191.902 328.43 197.864 334.391 205.217 334.391ZM205.217 325.402C207.607 325.402 209.544 323.465 209.544 321.076C209.544 318.687 207.607 316.75 205.217 316.75C202.828 316.75 200.891 318.687 200.891 321.076C200.891 323.465 202.828 325.402 205.217 325.402ZM205.217 326.402C208.159 326.402 210.544 324.018 210.544 321.076C210.544 318.135 208.159 315.75 205.217 315.75C202.276 315.75 199.891 318.135 199.891 321.076C199.891 324.018 202.276 326.402 205.217 326.402ZM199.947 262.461C199.634 261.493 200.356 260.5 201.374 260.5H236.248C236.916 260.5 237.504 260.941 237.689 261.583L242.61 278.583C242.888 279.542 242.168 280.5 241.169 280.5H215.143C215.001 280.5 214.859 280.48 214.722 280.439L205.585 277.764C205.108 277.625 204.732 277.259 204.579 276.786L199.947 262.461ZM201.374 261.5C201.035 261.5 200.794 261.831 200.899 262.154L205.53 276.479C205.581 276.636 205.707 276.758 205.866 276.805L215.003 279.48C215.048 279.493 215.096 279.5 215.143 279.5H241.169C241.502 279.5 241.742 279.181 241.65 278.861L236.729 261.861C236.667 261.647 236.471 261.5 236.248 261.5H201.374ZM285.645 280.5C286.839 280.5 287.554 279.173 286.898 278.175L275.714 261.176C275.437 260.754 274.966 260.5 274.461 260.5L246.232 260.5C245.28 260.5 244.568 261.377 244.765 262.309L248.343 279.309C248.49 280.003 249.102 280.5 249.811 280.5L285.645 280.5ZM286.063 278.725C286.282 279.058 286.043 279.5 285.645 279.5L249.811 279.5C249.575 279.5 249.371 279.334 249.322 279.103L245.743 262.103C245.678 261.792 245.915 261.5 246.232 261.5L274.461 261.5C274.629 261.5 274.786 261.585 274.879 261.725L286.063 278.725Z" fill="#474747"/>
<path d="M278.447 271.776L281.447 277.776" stroke="#474747" stroke-linecap="round"/>
<path d="M206 270L209 276" stroke="#474747" stroke-linecap="round"/>
<path d="M207 267L210 273" stroke="#474747" stroke-linecap="round"/>
</g>
<defs>
<clipPath id="clip0_360_3044">
<rect width="378" height="434" fill="white"/>
</clipPath>
</defs>
</svg>
